<?xml version="1.0" standalone="no"?><!DOCTYPE svg PUBLIC "-//W3C//DTD SVG 1.1//EN" "http://www.w3.org/Graphics/SVG/1.1/DTD/svg11.dtd"><svg t="1761322732333" class="icon" viewBox="0 0 1024 1024" version="1.1" xmlns="http://www.w3.org/2000/svg" p-id="6405" xmlns:xlink="http://www.w3.org/1999/xlink" width="200" height="200"><path d="M512 448c36.266667 0 64-27.733333 64-64s-27.733333-64-64-64-64 27.733333-64 64 27.733333 64 64 64z m0-85.333333c12.8 0 21.333333 8.533333 21.333333 21.333333s-8.533333 21.333333-21.333333 21.333333-21.333333-8.533333-21.333333-21.333333 8.533333-21.333333 21.333333-21.333333z" fill="#566073" p-id="6406"></path><path d="M512 512c100.266667 0 172.8-76.8 200.533333-110.933333 8.533333-10.666667 8.533333-23.466667 0-34.133334-27.733333-34.133333-100.266667-110.933333-200.533333-110.933333s-172.8 76.8-200.533333 110.933333c-8.533333 10.666667-8.533333 23.466667 0 34.133334 27.733333 34.133333 100.266667 110.933333 200.533333 110.933333z m0-213.333333c72.533333 0 130.133333 51.2 160 85.333333-29.866667 34.133333-87.466667 85.333333-160 85.333333s-130.133333-51.2-160-85.333333c29.866667-34.133333 87.466667-85.333333 160-85.333333zM330.666667 640h362.666666c17.066667 0 32-14.933333 32-32v-21.333333c0-17.066667-14.933333-32-32-32h-362.666666c-17.066667 0-32 14.933333-32 32v21.333333c0 17.066667 14.933333 32 32 32zM330.666667 768h213.333333c17.066667 0 32-14.933333 32-32v-21.333333c0-17.066667-14.933333-32-32-32h-213.333333c-17.066667 0-32 14.933333-32 32v21.333333c0 17.066667 14.933333 32 32 32z" fill="#566073" p-id="6407"></path><path d="M170.666667 85.333333v853.333334h682.666666V85.333333H170.666667z m597.333333 768H256V170.666667h512v682.666666z" fill="#566073" p-id="6408"></path></svg>